<svg id="Layer_1" enable-background="new 0 0 512 512" height="512" viewBox="0 0 512 512" width="512" xmlns="http://www.w3.org/2000/svg"><g><path d="m466 368h-60.973c-2.566-14.606-5.967-41.333-3.994-73.075 3.93-63.206 26.23-115.561 66.28-155.611 4.87-4.87 6.077-12.309 2.998-18.469-3.08-6.159-9.755-9.657-16.574-8.684-6.428.918-64.311 12.375-136.91 131.408l-45.125-230.641c-1.469-7.51-8.05-12.928-15.702-12.928s-14.233 5.418-15.702 12.928l-45.125 230.641c-72.597-119.034-130.481-130.49-136.91-131.408-6.819-.974-13.494 2.524-16.574 8.684s-1.873 13.599 2.998 18.469c40.05 40.05 62.35 92.406 66.28 155.611 1.974 31.746-1.429 58.477-3.993 73.075h-60.974c-25.364 0-46 20.636-46 46v52c0 25.364 20.636 46 46 46h420c25.364 0 46-20.636 46-46v-52c0-25.364-20.636-46-46-46zm-124.28-103.768c18.271-30.452 35.371-53.272 50.551-70.353-13.244 30.357-21.117 64.045-23.243 100.182-1.813 30.824.88 57.068 3.533 73.939h-31.388l-15.154-77.451c4.455-7.517 9.535-16.031 15.701-26.317zm-85.72-164.904 52.566 268.672h-52.566-52.566zm-113.028 194.733c-2.127-36.162-10.012-69.877-23.273-100.251 15.024 16.935 32.183 39.759 50.578 70.417 6.169 10.29 11.249 18.805 15.704 26.322l-15.154 77.451h-31.388c2.653-16.871 5.347-43.116 3.533-73.939zm337.028 171.939c0 7.72-6.28 14-14 14h-420c-7.72 0-14-6.28-14-14v-52c0-7.72 6.28-14 14-14h74 64 72 72 64 74c7.72 0 14 6.28 14 14z"/></g></svg>