<svg id="Layer_1" enable-background="new 0 0 512.008 512.008" height="512" viewBox="0 0 512.008 512.008" width="512" xmlns="http://www.w3.org/2000/svg"><g><path d="m510.105 156.693c-.363-.678-9.035-16.798-20.99-34.273-17.577-25.692-32.803-40.601-46.548-45.577-6.417-2.323-14.491-3.169-24.3-2.569 50.207-30.699 82.851-43.1 83.323-43.276 8.274-3.083 12.488-12.286 9.413-20.564-3.078-8.284-12.289-12.504-20.57-9.428-2.951 1.096-73.365 27.688-169.178 101.312-11.938 9.174-23.738 18.699-35.402 28.521 1.674-7.036 2.199-13.225 1.582-18.618-1.66-14.524-12.639-32.787-33.566-55.833-14.234-15.675-27.91-27.842-28.485-28.353-3.4-3.016-7.922-4.442-12.435-3.927-4.514.516-8.597 2.927-11.228 6.632-.445.627-11.023 15.565-21.354 34.048-15.188 27.173-21.764 47.443-20.104 61.966s12.64 32.787 33.567 55.833c6.15 6.773 12.193 12.888 17.123 17.693-16.288 16.584-32.191 33.799-47.656 51.61-6.744 7.768-13.394 15.67-19.974 23.666.42-3.706.472-7.147.111-10.3-1.66-14.524-12.639-32.787-33.566-55.833-14.234-15.675-27.91-27.842-28.485-28.353-3.399-3.015-7.916-4.445-12.435-3.927-4.514.516-8.597 2.927-11.228 6.632-.445.627-11.023 15.565-21.354 34.048-15.188 27.173-21.764 47.443-20.104 61.967 1.66 14.523 12.64 32.787 33.567 55.832 12.481 13.745 24.53 24.79 27.698 27.647-27.142 39.728-52.425 81.56-75.65 125.223-4.15 7.801-1.189 17.49 6.612 21.64 2.394 1.273 4.965 1.877 7.5 1.877 5.725 0 11.263-3.082 14.14-8.49 47.433-89.175 99.467-162.49 150.124-221.998.461.906.998 1.778 1.633 2.592.473.606 11.752 15.022 26.498 30.218 21.678 22.34 39.212 34.452 53.602 37.025 2.35.42 4.866.631 7.554.631 13.775 0 32.064-5.535 55.558-16.782 19.098-9.143 34.675-18.756 35.329-19.161 3.863-2.392 6.527-6.313 7.327-10.787s-.339-9.075-3.134-12.658c-.473-.606-11.752-15.023-26.498-30.219-21.678-22.34-39.212-34.452-53.602-37.025-14.392-2.576-35.034 2.71-63.112 16.152-3.528 1.689-6.934 3.393-10.149 5.053 46.207-49.988 90.169-88.456 127.132-117.044 3.636 6.127 8.49 13.969 14.057 22.107 17.577 25.692 32.803 40.601 46.548 45.577 5.104 1.848 11.24 2.774 18.473 2.774 12.246 0 27.635-2.656 46.463-7.991 20.372-5.773 37.353-12.606 38.065-12.895 4.213-1.702 7.504-5.116 9.05-9.388 1.548-4.273 1.205-9.002-.942-13.007zm-462.049 119.462c-1.158-10.131 11.075-35.499 25.517-58.494 19.315 19.252 36.944 41.38 38.069 51.227 1.158 10.13-11.075 35.499-25.517 58.493-19.315-19.252-36.944-41.379-38.069-51.226zm230.83-19.3c10.038 1.795 30.834 20.788 48.723 41.215-23.981 12.984-50.229 23.533-59.99 21.786-10.039-1.795-30.839-20.792-48.73-41.223 23.866-12.965 49.96-23.57 59.997-21.778zm-86.83-133.735c-1.158-10.132 11.078-35.504 25.522-58.502 19.262 19.147 36.906 41.103 38.063 51.235 1.158 10.131-11.075 35.499-25.517 58.494-19.314-19.252-36.943-41.38-38.068-51.227zm217.832 43.99c-9.589-3.472-26.867-25.719-41.036-48.888 25.718-8.731 53.231-14.761 62.821-11.291 9.589 3.472 26.867 25.719 41.035 48.888-25.718 8.732-53.231 14.761-62.82 11.291z"/></g></svg>