<svg id="Layer_1" enable-background="new 0 0 512 512" height="512" viewBox="0 0 512 512" width="512" xmlns="http://www.w3.org/2000/svg"><g><path d="m256 0c-105.869 0-192 86.131-192 192v66c0 25.364 20.636 46 46 46h93.263c2.036 9.344 4.804 23.079 6.943 37.574 6.962 47.166.749 57.149.48 57.551-18.162 27.244-18.686 46.742-18.686 48.875 0 35.29 28.71 64 64 64s64-28.71 64-64c0-2.133-.524-21.631-18.687-48.875-.268-.402-6.482-10.385.48-57.551 2.139-14.494 4.907-28.23 6.943-37.574h93.264c25.364 0 46-20.636 46-46v-66c0-105.869-86.131-192-192-192zm-32 448s.002.06 0 .177c0-.059 0-.118 0-.177zm64 .177c-.002-.118 0-.177 0-.177zm-13.313-31.302c12.031 18.046 13.223 30.196 13.312 31.383-.139 17.527-14.44 31.742-31.999 31.742s-31.86-14.215-31.999-31.742c.089-1.188 1.281-13.337 13.312-31.383 5.76-8.64 12.494-26.355 4.514-80.22-1.793-12.106-3.959-23.554-5.842-32.655h40.03c-1.883 9.102-4.049 20.549-5.842 32.655-7.98 53.865-1.246 71.58 4.514 80.22zm141.313-158.875c0 7.72-6.28 14-14 14h-106-80-106c-7.72 0-14-6.28-14-14v-66c0-88.224 71.776-160 160-160s160 71.776 160 160z"/></g></svg>