<svg id="Layer_1" enable-background="new 0 0 512 512" height="512" viewBox="0 0 512 512" width="512" xmlns="http://www.w3.org/2000/svg"><g><path d="m488.345 195.972c-9.385-10.056-20.822-17.651-33.412-22.372 5.563-12.243 8.28-25.701 7.806-39.446-.771-22.342-9.902-43.358-25.718-59.18-15.816-15.811-36.832-24.943-59.175-25.713-13.753-.469-27.205 2.245-39.446 7.808-4.721-12.59-12.317-24.028-22.373-33.413-16.344-15.255-37.663-23.656-60.027-23.656s-43.683 8.401-60.027 23.655c-10.055 9.384-17.65 20.821-22.372 33.409-12.235-5.56-25.687-8.276-39.448-7.804-22.343.771-43.358 9.902-59.179 25.718-15.812 15.817-24.943 36.833-25.714 59.175-.473 13.743 2.243 27.2 7.808 39.446-12.59 4.722-24.029 12.317-33.414 22.373-15.254 16.345-23.654 37.664-23.654 60.028s8.4 43.683 23.655 60.028c9.385 10.056 20.822 17.651 33.412 22.372-5.563 12.243-8.28 25.701-7.806 39.446.771 22.342 9.902 43.358 25.718 59.18 15.816 15.811 36.832 24.943 59.175 25.713 1.028.035 2.052.053 3.076.053 12.671 0 25.034-2.723 36.365-7.872 4.721 12.595 12.318 24.037 22.378 33.425 16.344 15.254 37.663 23.655 60.027 23.655s43.683-8.401 60.027-23.655c10.059-9.387 17.656-20.829 22.377-33.423 11.328 5.147 23.692 7.87 36.366 7.87 1.022 0 2.049-.018 3.076-.053 22.343-.771 43.358-9.902 59.179-25.718 15.812-15.817 24.943-36.833 25.714-59.175.473-13.743-2.243-27.2-7.808-39.446 12.59-4.722 24.029-12.317 33.414-22.373 15.255-16.344 23.655-37.663 23.655-60.027s-8.4-43.683-23.655-60.028zm-113.603-114.701c14.414 0 28.806 5.489 39.652 16.331 20.629 20.637 21.877 54.084 2.855 76.13-.945 1.092-1.904 2.125-2.854 3.075-14.048 14.047-63.651 21.454-102.401 23.191 1.723-38.732 9.123-88.319 23.196-102.392.951-.951 1.988-1.914 3.061-2.842 10.465-9.029 23.487-13.493 36.491-13.493zm-90.451 203.01c-7.564 7.557-17.611 11.719-28.291 11.719-10.677 0-20.723-4.16-28.286-11.714-7.554-7.563-11.714-17.609-11.714-28.286 0-10.68 4.162-20.728 11.709-28.281 7.564-7.557 17.611-11.719 28.291-11.719s20.727 4.162 28.28 11.708c7.558 7.564 11.72 17.612 11.72 28.292s-4.162 20.728-11.709 28.281zm-28.291-252.281c26.782 0 49.629 19.173 54.857 44.784-13.496 14.898-22.518 42.145-27.543 83.16-1.251 10.21-2.081 19.956-2.631 28.39-7.807-2.843-16.13-4.334-24.683-4.334-8.552 0-16.875 1.491-24.683 4.334-.55-8.434-1.38-18.18-2.631-28.39-5.025-41.013-14.047-68.259-27.543-83.16 5.228-25.611 28.075-44.784 54.857-44.784zm-158.398 65.606c10.854-10.85 25.247-16.338 39.665-16.338 12.995 0 26.012 4.462 36.46 13.478 1.094.947 2.131 1.909 3.08 2.858 14.046 14.047 21.453 63.645 23.191 102.394-38.749-1.738-88.348-9.145-102.396-23.193-.947-.947-1.906-1.98-2.837-3.057-19.036-22.062-17.788-55.509 2.837-76.142zm-65.602 158.394c0-26.782 19.173-49.628 44.784-54.857 14.898 13.496 42.144 22.518 83.16 27.543 10.21 1.251 19.956 2.081 28.389 2.631-2.842 7.807-4.333 16.13-4.333 24.683s1.491 16.876 4.334 24.683c-8.434.55-18.179 1.38-28.389 2.631-41.018 5.026-68.265 14.048-83.16 27.543-25.612-5.229-44.785-28.076-44.785-54.857zm65.605 158.398c-20.629-20.637-21.877-54.084-2.855-76.13.945-1.092 1.904-2.125 2.854-3.075 14.048-14.047 63.651-21.454 102.401-23.191-1.723 38.732-9.123 88.319-23.196 102.392-.951.951-1.988 1.914-3.061 2.842-22.062 19.037-55.512 17.786-76.143-2.838zm158.395 65.602c-26.782 0-49.629-19.173-54.857-44.784 13.496-14.899 22.518-42.145 27.543-83.16 1.251-10.21 2.081-19.956 2.631-28.39 7.807 2.843 16.13 4.334 24.683 4.334 8.552 0 16.875-1.49 24.683-4.334.55 8.434 1.38 18.18 2.631 28.39 5.025 41.013 14.047 68.259 27.543 83.16-5.228 25.611-28.075 44.784-54.857 44.784zm158.398-65.606c-20.636 20.629-54.085 21.878-76.125 2.86-1.094-.947-2.131-1.909-3.08-2.858-14.046-14.047-21.453-63.645-23.191-102.394 38.749 1.738 88.348 9.145 102.396 23.193.947.947 1.906 1.98 2.837 3.057 19.036 22.062 17.788 55.509-2.837 76.142zm20.818-103.537c-14.898-13.496-42.144-22.518-83.16-27.543-10.21-1.251-19.956-2.081-28.389-2.631 2.842-7.807 4.333-16.13 4.333-24.683 0-8.552-1.491-16.875-4.334-24.683 8.434-.55 18.179-1.38 28.39-2.631 41.018-5.026 68.265-14.048 83.16-27.543 25.611 5.229 44.784 28.076 44.784 54.857s-19.173 49.628-44.784 54.857z"/></g></svg>