<svg id="Layer_1" enable-background="new 0 0 512 512" height="512" viewBox="0 0 512 512" width="512" xmlns="http://www.w3.org/2000/svg"><g><path d="m432 392c-8.837 0-16-7.164-16-16 0-88.224-71.775-160-160-160s-160 71.776-160 160c0 8.836-7.163 16-16 16s-16-7.164-16-16c0-105.869 86.131-192 192-192s192 86.131 192 192c0 8.836-7.163 16-16 16z"/><path d="m368 392c-8.837 0-16-7.164-16-16 0-52.935-43.065-96-96-96s-96 43.065-96 96c0 8.836-7.163 16-16 16s-16-7.164-16-16c0-70.58 57.421-128 128-128s128 57.42 128 128c0 8.836-7.163 16-16 16z"/><path d="m496 392c-8.837 0-16-7.164-16-16 0-123.514-100.486-224-224-224s-224 100.486-224 224c0 8.836-7.163 16-16 16s-16-7.164-16-16c0-68.381 26.629-132.668 74.98-181.02 48.352-48.352 112.639-74.98 181.02-74.98s132.668 26.628 181.02 74.98c48.351 48.352 74.98 112.639 74.98 181.02 0 8.836-7.163 16-16 16z"/><path d="m304 392c-8.837 0-16-7.164-16-16 0-17.645-14.355-32-32-32s-32 14.355-32 32c0 8.836-7.163 16-16 16s-16-7.164-16-16c0-35.29 28.71-64 64-64s64 28.71 64 64c0 8.836-7.163 16-16 16z"/></g></svg>