<svg id="Layer_1" enable-background="new 0 0 512 512" height="512" viewBox="0 0 512 512" width="512" xmlns="http://www.w3.org/2000/svg"><g><path d="m438.202 210.076 19.565-2.174c8.782-.976 15.111-8.887 14.135-17.669s-8.875-15.104-17.669-14.135l-39.145 4.35 22.479-35.967c4.684-7.493 2.405-17.365-5.088-22.048-7.494-4.684-17.365-2.406-22.048 5.088l-17.482 27.971c-18.792-57.685-73.075-99.492-136.949-99.492-76.833 0-139.802 60.487-143.796 136.344-70.497 26.495-112.204 70.705-112.204 119.656 0 40.38 27.972 77.537 78.764 104.626 47.607 25.391 110.55 39.374 177.236 39.374s129.629-13.983 177.236-39.374c50.792-27.089 78.764-64.246 78.764-104.626 0-39.253-26.821-75.458-73.798-101.924zm-294.202 45.448c17.626 15.782 40.289 24.476 64 24.476h96c23.711 0 46.374-8.694 64-24.476v.476c0 35.29-28.71 64-64 64h-96c-35.29 0-64-28.71-64-64zm112-167.524c58.66 0 106.927 45.332 111.62 102.803-3.398 32.166-31.107 57.197-63.62 57.197h-96c-32.513 0-60.222-25.031-63.62-57.197 4.693-57.471 52.96-102.803 111.62-102.803zm0 336c-121.42 0-224-51.29-224-112 0-32.12 30.131-63.656 80-85.075v29.075c0 52.935 43.065 96 96 96h96c52.935 0 96-43.065 96-96v-29.075c49.869 21.42 80 52.955 80 85.075 0 60.71-102.58 112-224 112z"/></g></svg>