<svg id="Layer_1" enable-background="new 0 0 512 512" height="512" viewBox="0 0 512 512" width="512" xmlns="http://www.w3.org/2000/svg"><g><path d="m400 208c0-16.985-8.876-31.927-22.225-40.461 4.131-12.69 6.225-25.928 6.225-39.539 0-70.58-57.421-128-128-128-70.58 0-128 57.42-128 128 0 13.611 2.095 26.849 6.225 39.539-13.349 8.534-22.225 23.476-22.225 40.461 0 10.501 3.399 20.219 9.142 28.13l87.66 242.736c7.157 19.818 26.125 33.134 47.198 33.134 10.379 0 20.352-3.154 28.829-9.112 8.484-5.953 14.835-14.256 18.37-24.023l87.651-242.724c5.748-7.913 9.15-17.635 9.15-28.141zm-256 0c0-8.171 6.161-14.92 14.08-15.873.142-.018.281-.037.427-.051.492-.046.989-.076 1.493-.076h192c.504 0 1.001.03 1.494.076.144.013.282.033.422.05 7.921.952 14.084 7.701 14.084 15.874 0 8.822-7.178 16-16 16h-192c-8.822 0-16-7.178-16-16zm112-176c52.935 0 96 43.065 96 96 0 11.058-1.83 21.781-5.451 32h-181.097c-3.622-10.219-5.452-20.943-5.452-32 0-52.935 43.065-96 96-96zm17.105 435.985c-1.281 3.54-3.583 6.551-6.666 8.715-3.072 2.159-6.682 3.3-10.439 3.3-7.636 0-14.508-4.824-17.101-12.004l-76.559-211.996h187.316z"/></g></svg>