<svg id="Layer_1" enable-background="new 0 0 519.413 519.413" height="512" viewBox="0 0 519.413 519.413" width="512" xmlns="http://www.w3.org/2000/svg"><g><path d="m436.443 175.398c-14.638-16.045-33.869-29.426-57.283-39.913 6.198-18.165 9.325-39.665 8.374-59.555-1.561-32.59-13.434-56.9-33.439-68.455-14.936-8.618-33.891-9.809-54.823-3.44-12.993 3.954-26.711 10.879-39.564 19.874-12.855-8.995-26.572-15.92-39.564-19.874-20.931-6.368-39.886-5.178-54.828 3.443-20.001 11.551-31.874 35.861-33.435 68.452-.952 19.891 2.176 41.39 8.374 59.556-23.417 10.489-42.646 23.869-57.283 39.913-20.745 22.74-31.264 49.661-31.264 80.015 0 23.399 6.481 51.768 18.743 82.038 11.682 28.838 27.991 58.056 47.166 84.494 44.923 61.942 96.713 97.468 142.091 97.468s97.168-35.526 142.091-97.468c19.175-26.438 35.484-55.656 47.166-84.494 12.262-30.271 18.743-58.639 18.743-82.038-.002-30.355-10.52-57.276-31.265-80.016zm-98.348-140.211c19.623 11.334 21.936 56.818 11.104 89.157-16.506-5.004-34.041-8.611-52.316-10.742-12.304-1.454-24.812-2.19-37.177-2.19-7.185 0-14.417.256-21.625.75-.154-9.996 2.388-19.887 7.511-28.757 5.096-8.824 13.678-18.411 24.173-27.007.024-.02.048-.041.073-.061.001-.001.002-.002.003-.002 25.54-20.905 53.609-29.596 68.254-21.148zm-156.782.004c11.803-6.81 32.318-2.485 53.201 10.383-6.764 7.164-12.461 14.604-16.633 21.827-8.622 14.929-12.588 31.695-11.685 48.537-12.436 2.104-24.462 4.914-35.982 8.406-10.831-32.339-8.52-77.822 11.099-89.153zm194.58 367.967c-38.262 52.758-81.696 84.255-116.187 84.255s-77.925-31.497-116.187-84.255c-35.776-49.33-59.813-108.704-59.813-147.745 0-57.142 52.006-84.782 83.028-96.178.023-.008.046-.016.068-.024 18.22-6.699 38.224-11.351 59.481-13.828 11.063-1.307 22.308-1.97 33.423-1.97s22.36.663 33.447 1.973c21.229 2.474 41.228 7.125 59.454 13.824.027.01.054.019.081.029 31.013 11.393 83.018 39.033 83.018 96.174 0 39.041-24.037 98.415-59.813 147.745z"/><circle cx="179.706" cy="223.413" r="24"/><circle cx="259.706" cy="223.413" r="24"/><circle cx="339.706" cy="223.413" r="24"/><circle cx="219.706" cy="303.413" r="24"/><circle cx="299.706" cy="303.413" r="24"/><circle cx="259.706" cy="383.413" r="24"/></g></svg>