<svg id="Layer_1" enable-background="new 0 0 512 512" height="512" viewBox="0 0 512 512" width="512" xmlns="http://www.w3.org/2000/svg"><g><path d="m256 0c-70.579 0-128 57.42-128 128v226c0 25.364 20.636 46 46 46h34v64c0 26.467 21.532 48 48 48s48-21.533 48-48v-64h34c25.364 0 46-20.636 46-46v-226c0-70.58-57.421-128-128-128zm16 464c0 8.822-7.178 16-16 16s-16-7.178-16-16v-64h32zm80-110c0 7.72-6.28 14-14 14h-50-64-50c-7.72 0-14-6.28-14-14v-226c0-52.935 43.065-96 96-96s96 43.065 96 96z"/><path d="m256 152c-8.837 0-16 7.164-16 16v104c0 8.836 7.163 16 16 16s16-7.164 16-16v-104c0-8.836-7.163-16-16-16z"/></g></svg>