<svg id="Layer_1" enable-background="new 0 0 512.031 512.031" height="512" viewBox="0 0 512.031 512.031" width="512" xmlns="http://www.w3.org/2000/svg"><g><path d="m420.015 208.031h-138.21c.012-22.832-1.704-65.414-12.516-108.32 17.014-.9 40.674-4.311 52.131-15.768 16.109-16.11 16.314-56.359 15.994-68.312-.228-8.5-7.065-15.337-15.565-15.565-11.948-.321-52.202-.116-68.311 15.995-4.528 4.528-7.8 10.964-10.156 18.143-6.425-10.789-13.902-20.771-22.617-29.487-6.249-6.248-16.379-6.248-22.628 0-6.248 6.249-6.248 16.379 0 22.628 16.166 16.166 27.312 38.379 34.985 62.052-3.464-3.02-7.123-5.444-10.943-6.934-21.225-8.28-58.166 7.702-68.982 12.798-7.692 3.624-11.206 12.631-8 20.507 4.508 11.074 20.866 47.85 42.091 56.13 4.233 1.652 9.092 2.338 14.244 2.338 15.755 0 34.245-6.417 45.989-11.277 1.761 18.271 2.2 34.196 2.224 45.072h-157.73c-19.851 0-36 16.149-36 36v40c0 19.851 16.149 36 36 36h14.446l26.987 161.918c2.904 17.431 17.838 30.082 35.51 30.082h174.115c17.671 0 32.605-12.651 35.51-30.082l26.987-161.918h14.446c19.851 0 36-16.149 36-36v-40c-.001-19.851-16.15-36-36.001-36zm-143.849-169.342c3.139-2.803 15.305-5.258 28.859-6.233-.976 13.59-3.432 25.773-6.208 28.836-3.1 2.813-15.3 5.28-28.898 6.257.969-13.542 3.429-25.703 6.247-28.86zm-77.248 103.396c-3.829-1.749-10.968-11.91-17.309-23.936 12.82-4.567 24.963-7.208 28.907-5.887 3.821 1.708 10.982 11.892 17.34 23.95-12.789 4.553-24.912 7.189-28.938 5.873zm148.1 334.604c-.323 1.937-1.982 3.342-3.945 3.342h-174.115c-1.963 0-3.623-1.405-3.945-3.342l-26.11-156.658h234.226zm76.997-192.658c0 2.206-1.794 4-4 4h-28-272-28c-2.206 0-4-1.794-4-4v-40c0-2.206 1.794-4 4-4h173.432.017.01 154.541c2.206 0 4 1.794 4 4z"/></g></svg>