<svg id="Layer_1" enable-background="new 0 0 512.013 512.013" height="512" viewBox="0 0 512.013 512.013" width="512" xmlns="http://www.w3.org/2000/svg"><g><path d="m453.445 359.278c-16.43-22.402-41.924-36.573-69.365-38.915-33.285-43.049-60.643-89.93-81.667-139.871 11.634 2.951 24.158 4.745 35.764 4.745 8.716 0 16.917-1.012 23.829-3.306 23.268-7.72 49.54-35.805 61.497-58.498.001-.002.002-.003.003-.005 4.456-8.465 5.25-18.124 2.236-27.197-3.013-9.072-9.427-16.334-18.059-20.449-13.574-6.471-31.209-11.057-47.799-12.702-3.296-16.344-9.633-33.437-17.43-46.309-4.965-8.176-12.837-13.828-22.167-15.916-9.326-2.086-18.853-.329-26.833 4.956-21.379 14.179-46.694 43.13-52.052 67.044-4.282 19.162 1.64 46.689 10.994 68.153-52.22 52.508-94.844 112.878-126.812 179.588-26.543 2.929-51.057 16.918-67.009 38.67-12.149 16.532-18.571 36.155-18.571 56.748 0 52.935 43.065 96 96 96s96-43.065 96-96c0-20.593-6.422-40.216-18.562-56.735-13.194-17.991-32.238-30.667-53.438-36.179 27.607-54.771 62.898-104.877 105.195-149.36 20.649 53.699 48.123 104.225 81.977 150.749-19.252 6.093-36.423 18.171-48.602 34.777-12.149 16.532-18.571 36.155-18.571 56.748 0 52.935 43.065 96 96 96s96-43.065 96-96c.004-20.594-6.418-40.217-18.558-56.736zm-58.07-252.959c.172.518.28 1.318-.181 2.198-10.317 19.58-31.728 39.215-43.264 43.042-11.541 3.83-40.443.891-60.393-8.625-.37-.177-.67-.398-.92-.679-.595-.668-1.052-1.9-.383-3.17 10.32-19.587 31.73-39.227 43.265-43.053 1.736-.576 5.692-1.554 12.695-1.626.301-.003.604-.005.907-.005 15.158 0 33.843 4.085 46.813 10.269.896.425 1.289 1.132 1.461 1.649zm-122.743-26.476c2.656-11.854 20.056-35.125 38.501-47.357.828-.549 1.635-.521 2.17-.402.535.12 1.281.442 1.791 1.282 5.175 8.542 9.616 19.933 12.357 31.15-1.394.343-2.747.718-4.031 1.144-17.026 5.649-35.658 22.211-49.117 39.586-2.272-10.35-2.932-19.759-1.671-25.403zm-84.982 298.372c8.084 11 12.357 24.071 12.357 37.798 0 35.29-28.71 64-64 64s-64-28.71-64-64c0-13.728 4.273-26.798 12.366-37.811 12.013-16.381 31.288-26.167 51.569-26.188.018 0 .037.003.055.003.027 0 .053-.003.08-.003 20.279.023 39.551 9.809 51.573 26.201zm188.357 101.798c-35.29 0-64-28.71-64-64 0-13.728 4.273-26.798 12.366-37.811 12.026-16.399 31.329-26.189 51.634-26.189h.003.008.006c20.299.005 39.594 9.795 51.626 26.201 8.084 11 12.357 24.071 12.357 37.798 0 35.291-28.711 64.001-64 64.001z"/></g></svg>