<svg id="Layer_1" enable-background="new 0 0 512 512" height="512" viewBox="0 0 512 512" width="512" xmlns="http://www.w3.org/2000/svg"><g><path d="m367.588 144.109-62.088-114.627c-4.836-8.931-11.998-16.386-20.678-21.539-8.702-5.196-18.669-7.943-28.822-7.943-20.685 0-39.652 11.296-49.499 29.479l-62.091 114.633c-10.587 19.556-18.723 40.387-24.179 61.917-5.462 21.547-8.231 43.742-8.231 65.971 0 8.836 7.164 16 16 16h80.679c2.918 17.315 15.132 31.506 31.321 37.248v18.752h-4c-19.851 0-36 16.149-36 36v76c0 30.878 25.122 56 56 56 30.879 0 56-25.122 56-56v-76c0-19.851-16.149-36-36-36h-4v-18.752c16.189-5.741 28.402-19.933 31.321-37.248h80.679c8.837 0 16-7.164 16-16 0-44.513-11.208-88.737-32.412-127.891zm-87.588 235.891v76c0 13.234-10.767 24-24 24-13.234 0-24-10.766-24-24v-76c0-2.206 1.794-4 4-4h40c2.206 0 4 1.794 4 4zm-8-100c0 8.822-7.178 16-16 16s-16-7.178-16-16v-16c0-8.822 7.178-16 16-16s16 7.178 16 16zm31.321-24c-3.821-22.671-23.579-40-47.321-40-23.741 0-43.499 17.329-47.321 40h-64.136c.964-14.199 3.208-28.306 6.707-42.109 4.806-18.964 11.973-37.315 21.299-54.54l62.09-114.631c4.249-7.846 12.434-12.72 21.361-12.72 4.379 0 8.673 1.182 12.451 3.438 3.744 2.223 6.825 5.432 8.91 9.283l62.089 114.628c16.133 29.79 25.696 62.911 28.003 96.651z"/></g></svg>