<svg id="Layer_1" enable-background="new 0 0 512.004 512.004" height="512" viewBox="0 0 512.004 512.004" width="512" xmlns="http://www.w3.org/2000/svg"><g><path d="m416.002 400c-1.74 0-3.458.091-5.157.247l-20.612-65.958c-.012-.039-.024-.077-.036-.116l-46.34-148.284c33.045-23.041 57.452-57.638 67.321-97.889h28.824c8.837 0 16-7.164 16-16s-7.163-16-16-16h-24.195c.125-2.652.195-5.318.195-8v-32c0-8.836-7.163-16-16-16h-304c-8.837 0-16 7.164-16 16v32c0 2.682.07 5.348.195 8h-24.195c-8.837 0-16 7.164-16 16s7.163 16 16 16h28.824c9.794 39.947 33.906 74.329 66.572 97.369l-94.68 305.9c-2.613 8.441 2.112 17.403 10.554 20.016 1.575.488 3.169.72 4.735.72 6.829 0 13.154-4.408 15.279-11.273l31.142-100.615 245.429-42.945 17.219 55.102c-12.833 10.271-21.075 26.05-21.075 43.728 0 30.878 25.121 56 56 56s56-25.122 56-56-25.12-56.002-55.999-56.002zm-304-352v-16h272v16c0 74.991-61.01 136-136 136s-136-61.009-136-136zm17.057 317.77 50.826-164.214c20.832 9.277 43.881 14.444 68.117 14.444 23.933 0 46.707-5.041 67.332-14.1l38.897 124.469zm286.943 114.23c-13.233 0-24-10.766-24-24s10.767-24 24-24 24 10.766 24 24-10.766 24-24 24z"/></g></svg>