<svg id="Layer_1" enable-background="new 0 0 512 512" height="512" viewBox="0 0 512 512" width="512" xmlns="http://www.w3.org/2000/svg"><g><path d="m512 216c0-101.458-82.542-184-184-184-48.82 0-94.808 18.921-129.489 53.277-33.654 33.338-52.875 77.45-54.407 124.617-7.985 14.33-13.3 30.343-15.26 47.364-5.546-.837-11.171-1.258-16.844-1.258-61.757 0-112 50.243-112 112s50.243 112 112 112h288c61.757 0 112-50.243 112-112 0-24.572-7.96-47.316-21.429-65.803 14.04-26.439 21.429-56.003 21.429-86.197zm-184-152c83.813 0 152 68.187 152 152 0 21.543-4.555 42.689-13.256 62.115-18.653-13.886-41.755-22.115-66.744-22.115-5.673 0-11.298.421-16.844 1.258-7.332-63.663-61.56-113.258-127.156-113.258-26.439 0-51.028 8.061-71.447 21.848 20.851-59.181 77.47-101.848 143.447-101.848zm72 384h-288c-44.112 0-80-35.888-80-80s35.888-80 80-80c9.204 0 18.216 1.543 26.784 4.587 5.042 1.792 10.649.943 14.938-2.264 4.287-3.206 6.687-8.343 6.394-13.688-.078-1.423-.116-2.939-.116-4.635 0-52.935 43.065-96 96-96s96 43.065 96 96c0 1.696-.038 3.212-.115 4.635-.293 5.345 2.106 10.482 6.394 13.688s9.894 4.056 14.938 2.264c8.567-3.044 17.579-4.587 26.783-4.587 44.112 0 80 35.888 80 80s-35.888 80-80 80z"/></g></svg>