<svg id="Layer_1" enable-background="new 0 0 512 512" height="512" viewBox="0 0 512 512" width="512" xmlns="http://www.w3.org/2000/svg"><g><path d="m440 0c-39.701 0-72 32.299-72 72v56h-40v-56c0-39.701-32.299-72-72-72s-72 32.299-72 72v56h-40v-56c0-39.701-32.299-72-72-72s-72 32.299-72 72v424c0 8.836 7.164 16 16 16h112c8.836 0 16-7.164 16-16v-224h40v224c0 8.836 7.164 16 16 16h112c8.836 0 16-7.164 16-16v-224h40v224c0 8.836 7.164 16 16 16h112c8.836 0 16-7.164 16-16v-424c0-39.701-32.299-72-72-72zm-328 480h-80v-408c0-22.056 17.944-40 40-40s40 17.944 40 40v72 112zm32-240v-80h40v80zm152 240h-80v-408c0-22.056 17.944-40 40-40s40 17.944 40 40zm32-240v-80h40v80zm152 240h-80v-224-112-72c0-22.056 17.944-40 40-40s40 17.944 40 40z"/><path d="m440.02 184h-.01c-8.836 0-15.995 7.164-15.995 16s7.168 16 16.005 16 16-7.164 16-16-7.164-16-16-16z"/><path d="m256.02 184h-.01c-8.836 0-15.995 7.164-15.995 16s7.168 16 16.005 16 16-7.164 16-16-7.164-16-16-16z"/><path d="m72.02 184h-.01c-8.836 0-15.995 7.164-15.995 16s7.168 16 16.005 16 16-7.164 16-16-7.164-16-16-16z"/></g></svg>