<svg id="Layer_1" enable-background="new 0 0 512 512" height="512" viewBox="0 0 512 512" width="512" xmlns="http://www.w3.org/2000/svg"><g><path d="m496 112h-72-336-72c-8.836 0-16 7.164-16 16v16c0 68.38 26.628 132.667 74.98 181.02s112.64 74.98 181.02 74.98 132.667-26.628 181.02-74.98 74.98-112.64 74.98-181.02v-16c0-8.836-7.164-16-16-16zm-88 32c0 83.813-68.187 152-152 152s-152-68.187-152-152zm-152 224c-123.514 0-224-100.486-224-224h40c0 101.458 82.542 184 184 184s184-82.542 184-184h40c0 123.514-100.486 224-224 224z"/><path d="m256 216c8.836 0 16-7.164 16-16v-8c0-8.836-7.164-16-16-16s-16 7.164-16 16v8c0 8.836 7.164 16 16 16z"/><path d="m186.402 206.598c4.095 0 8.189-1.562 11.313-4.687l5.657-5.657c6.249-6.248 6.249-16.379 0-22.627-6.248-6.249-16.379-6.249-22.627 0l-5.657 5.657c-6.249 6.248-6.249 16.379 0 22.627 3.124 3.125 7.219 4.687 11.314 4.687z"/><path d="m314.746 201.912c3.124 3.125 7.219 4.687 11.313 4.687s8.189-1.562 11.313-4.687c6.249-6.248 6.249-16.379 0-22.627l-5.657-5.657c-6.248-6.249-16.379-6.249-22.627 0-6.249 6.248-6.249 16.379 0 22.627z"/></g></svg>