<svg id="Layer_1" enable-background="new 0 0 512.207 512.207" height="512" viewBox="0 0 512.207 512.207" width="512" xmlns="http://www.w3.org/2000/svg"><g><path d="m472.002 194.951c-15.642-39.747-44.554-70.999-79.837-89.862 22.849-65.062 13.174-85.211 3.683-94.702-10.213-10.214-26.75-12.809-52.046-8.164-17.795 3.267-37.128 9.728-50.216 14.573-12.634 4.68-23.292 12.623-31.147 23.008-8.717-14.531-21.36-27.042-37.855-37.351-7.494-4.685-17.364-2.405-22.048 5.088s-2.405 17.365 5.088 22.048c29.871 18.67 37.026 42.88 36.987 61.875-3.41-1.089-6.872-2.017-10.379-2.764-1.512-.325-3.075-.635-4.77-.945-79.479-14.588-159.073 30.496-189.257 107.197-33.836 85.998-13.486 183.78 51.845 249.112 43.943 43.943 102.205 68.144 164.054 68.144s120.11-24.201 164.054-68.144c65.33-65.332 85.681-163.114 51.844-249.113zm-188.971-127.123c3.996-9.862 11.691-17.329 21.668-21.023 45.518-16.852 64.469-15.746 68.473-13.743 1.868 3.732 2.947 20.471-10.572 59.617-25.289-7.911-52.563-9.933-79.82-4.932-.729.132-1.456.272-2.191.414l-.134.026c-.886-6.877-.041-13.901 2.576-20.359zm114.499 353.608c-77.983 77.983-204.871 77.982-282.853 0-56.323-56.323-73.866-140.625-44.695-214.768 21.511-54.661 73.65-89.643 129.526-89.643 8.009 0 16.103.72 24.186 2.203 1.374.251 2.617.498 3.835.76 7.351 1.566 14.414 4.198 20.99 7.823 5.63 3.111 10.869 6.931 15.545 11.327 7.572 7.157 13.873 14.477 18.727 21.756 4.901 7.353 14.836 9.339 22.188 4.438 7.353-4.902 9.34-14.836 4.438-22.188-5.438-8.158-12.171-16.231-20.07-24.066 64.194-11.369 128.391 25.36 152.879 87.589 29.171 74.144 11.628 158.446-44.696 214.769z"/></g></svg>