<svg id="Layer_1" enable-background="new 0 0 512.007 512.007" height="512" viewBox="0 0 512.007 512.007" width="512" xmlns="http://www.w3.org/2000/svg"><g><path d="m503.159 206.318c7.904-3.952 11.107-13.563 7.155-21.466-3.95-7.903-13.561-11.105-21.466-7.156l-6.949 3.475c-10.525-11.238-23.56-20.445-38.706-26.653-27.362-11.215-63.464-13.655-96.571-6.527-30.451 6.556-53.92 20.138-67.944 38.965-7.343-1.957-14.926-2.948-22.674-2.948s-15.331.991-22.674 2.948c-14.024-18.827-37.493-32.409-67.944-38.965-33.107-7.128-69.208-4.688-96.571 6.527-15.146 6.208-28.181 15.415-38.706 26.653l-6.949-3.475c-7.903-3.953-17.515-.747-21.466 7.156-3.952 7.903-.749 17.514 7.155 21.466l2.837 1.418c-13.696 27.583-15.946 60.699-3.402 91.377 11.206 27.406 32.403 48.804 59.688 60.251 13.787 5.785 28.293 8.678 42.805 8.678 14.21 0 28.426-2.775 41.974-8.328 27.359-11.214 54.803-34.817 73.41-63.138 18.178-27.668 25.192-55.459 20.425-79.776 3.086-.521 6.229-.793 9.42-.793s6.334.273 9.42.793c-4.767 24.316 2.247 52.107 20.425 79.776 18.607 28.321 46.051 51.924 73.41 63.138 13.549 5.553 27.762 8.328 41.974 8.328 14.51 0 29.02-2.895 42.805-8.678 27.284-11.447 48.481-32.845 59.688-60.251 12.544-30.678 10.293-63.794-3.402-91.377zm-362.547 123.787c-19.465 7.978-40.866 7.889-60.262-.249-19.401-8.14-34.477-23.359-42.448-42.854-16.458-40.251 2.854-86.4 43.049-102.876 21.295-8.728 51.069-10.586 77.699-4.854 27.548 5.931 47.317 19.043 54.241 35.976 15.091 36.907-28.631 96.967-72.279 114.857zm333.493-43.103c-7.972 19.495-23.047 34.714-42.448 42.854-19.396 8.137-40.8 8.226-60.262.249-43.648-17.89-87.37-77.949-72.279-114.856 6.924-16.933 26.693-30.045 54.241-35.976 10.244-2.206 20.95-3.287 31.463-3.287 16.817 0 33.134 2.77 46.236 8.141 40.196 16.474 59.507 62.624 43.049 102.875z"/></g></svg>