<svg id="Layer_1" enable-background="new 0 0 512.008 512.008" height="512" viewBox="0 0 512.008 512.008" width="512" xmlns="http://www.w3.org/2000/svg"><g><path d="m434.662 103.688c-1.356-4.021-4.255-7.338-8.058-9.222-.985-.489-20.031-9.756-46.833-11.877.637-4.201 1.101-8.425 1.384-12.656 1.359-20.109-1.217-39.976-7.655-59.047-2.826-8.372-11.907-12.865-20.275-10.042-23.353 7.882-44.137 21.108-61.028 38.654-17.716-18.011-35.441-29.002-36.363-29.568-3.831-2.353-8.475-2.984-12.794-1.742-4.32 1.242-7.919 4.245-9.915 8.272l-42.621 86.012c-13.283 26.817-15.329 57.192-5.764 85.521 4.619 13.708 11.711 26.199 21.083 37.136.161.197.327.389.499.578 2.899 3.337 6.004 6.484 9.275 9.448-10.183 13.996-22.681 32.98-32.97 56.657-7.488-8.705-17.709-14.792-29.346-17.09-38.397-7.583-60.146-5.157-70.54 7.875-10.374 13.039-7.885 34.784 8.071 70.505 7.314 16.38 22.327 27.718 40.16 30.329 2.647.388 5.293.578 7.924.578 8.215 0 16.265-1.87 23.636-5.385-7.378 83.609-14.487 113.229-14.561 113.532-2.121 8.562 3.089 17.229 11.649 19.369 1.303.326 2.608.481 3.893.481 7.169 0 13.693-4.854 15.511-12.124.339-1.358 8.406-34.365 16.422-130.552 4.396-52.746 29.369-92.506 46.716-116.279 5.89 2.844 12.013 5.18 18.21 6.932 10.137 2.877 20.389 4.259 30.512 4.258 41.661-.002 81.052-23.411 100.334-62.317l42.62-86.02c1.885-3.8 2.181-8.195.824-12.216zm-87.135-65.856c1.813 9.829 2.385 19.85 1.702 29.953-.365 5.453-1.108 10.889-2.212 16.251-7.565 1.312-14.926 3.296-22.042 5.976-2.786-8.511-6.932-17.013-12.408-25.461 9.945-11.021 21.758-20.05 34.96-26.719zm-128.349 78.846 34.25-69.117c7.94 6.354 17.897 15.352 26.418 26.202 8.573 10.924 14.014 21.588 16.242 31.814-29.884 21.2-58.041 54.917-77.418 81.114-1.372-2.884-2.576-5.861-3.608-8.926-6.833-20.238-5.371-41.934 4.116-61.087zm-61.316 225.698c-.032.04-.064.081-.097.122-.219.278-.438.545-.679.824-5.55 6.447-13.578 9.605-21.478 8.448-7.035-1.03-12.713-5.299-15.577-11.715-9.188-20.57-11.37-32.131-11.506-36.923 4.699-.933 16.452-1.38 38.557 2.985 6.895 1.361 12.323 5.943 14.896 12.569 2.89 7.441 1.601 15.973-3.394 22.75-.234.315-.474.631-.722.94zm204.684-154.657c-17.121 34.545-56.422 51.988-93.451 41.479-4.684-1.324-9.31-3.11-13.745-5.308-2.998-1.487-5.933-3.176-8.727-5.024-2.659-1.758-5.207-3.671-7.629-5.728 18.533-25.914 48.213-63.113 78.546-83.49 1.432-.961 2.706-1.776 3.896-2.492.014-.008.028-.017.042-.025 12.068-7.27 25.386-11.529 39.597-12.662.056-.004.112-.008.167-.013 14.029-1.104 26.691 1.005 35.909 3.421z"/></g></svg>